Coordinates
version=1
nRows=7
nColumns=42
inDegrees=yes

Units are S.I. units (second, meters, Newtons, ...)
If the header above contains a line with 'inDegrees', this indicates whether rotational values are in degrees (yes) or radians (no).

endheader
time	pelvis_tilt	pelvis_list	pelvis_rotation	pelvis_tx	pelvis_ty	pelvis_tz	hip_flexion_r	hip_adduction_r	hip_rotation_r	knee_angle_r	knee_adduction_r	knee_angle_r_beta	ankle_angle_r	subtalar_angle_r	mtp_angle_r	hip_flexion_l	hip_adduction_l	hip_rotation_l	knee_angle_l	knee_adduction_l	knee_angle_l_beta	ankle_angle_l	subtalar_angle_l	mtp_angle_l	lumbar_extension	lumbar_bending	lumbar_rotation	arm_flex_r	arm_add_r	arm_rot_r	elbow_flex_r	pro_sup_r	wrist_flex_r	wrist_dev_r	arm_flex_l	arm_add_l	arm_rot_l	elbow_flex_l	pro_sup_l	wrist_flex_l	wrist_dev_l
      8.82000000	      5.59958802	     -0.17615154	     -1.19308819	      1.06785667	      0.92618874	     -0.11048165	     13.11518961	     -5.82332861	    -21.74726345	     37.80049605	     -0.34268066	      0.65974311	     15.70045646	      5.59202618	     -7.50001096	     -3.96931159	     -2.37762836	    -19.64859455	     31.48358596	     -3.72177480	      0.54949224	     20.87320000	      2.34561543	     -7.50001096	    -17.52711130	      3.75260648	     -5.62621240	     10.03755944	    -12.44928789	      4.03147774	     42.14280181	     90.00000001	      0.00000000	      0.00000000	    -11.21565719	    -11.19238978	      1.51784388	     54.90829863	     90.00000001	      0.00000000	      0.00000000
      8.83000000	      5.48578085	     -0.19982155	     -1.18468704	      1.07029202	      0.92629440	     -0.10921835	     12.98849827	     -5.62331964	    -21.32516819	     37.67288546	     -0.11967888	      0.65751589	     15.76849592	      4.78985803	     -7.50001035	     -3.58705968	     -2.53988930	    -19.07616485	     32.36306369	     -3.60210188	      0.56484202	     19.99696071	      0.64228078	     -7.50001035	    -17.46800768	      3.88496936	     -5.75433557	     10.14662758	    -12.52437883	      4.42850780	     42.58706966	     90.00000001	      0.00000000	      0.00000000	    -11.39981437	    -11.51187055	      2.05918569	     55.52645304	     90.00000001	      0.00000000	      0.00000000
      8.84000000	      5.47682057	     -0.15248524	     -1.23176340	      1.07284075	      0.92653499	     -0.10806235	     12.74976671	     -5.58535000	    -21.35562936	     37.54367604	     -0.11544094	      0.65526076	     15.90223647	      4.80692674	     -7.50001028	     -3.28410965	     -2.66352020	    -18.94448157	     33.28871542	     -3.64547536	      0.58099769	     19.63157939	      0.49816833	     -7.50001028	    -17.51701672	      3.93416579	     -5.71619338	     10.27762205	    -12.62623325	      4.44514410	     42.65851759	     90.00000001	      0.00000000	      0.00000000	    -11.37143644	    -11.49296896	      2.06467376	     55.52635733	     90.00000001	      0.00000000	      0.00000000
      8.85000000	      5.38458656	     -0.14691894	     -1.28692064	      1.07526365	      0.92668582	     -0.10684903	     12.62336629	     -5.43534942	    -21.39787309	     37.38675483	     -0.23403215	      0.65252197	     16.07716893	      4.90944852	     -7.50001014	     -2.78214090	     -2.84438305	    -18.76256606	     34.39583655	     -3.71896140	      0.60032060	     19.01495924	     -0.00250017	     -7.50001014	    -17.48660047	      4.02677872	     -5.68904681	     10.43371839	    -12.70873248	      4.53619222	     42.85743204	     90.00000001	      0.00000000	      0.00000000	    -11.42502756	    -11.47245606	      2.06194754	     55.58544794	     90.00000001	      0.00000000	      0.00000000
      8.86000000	      5.47203366	      0.00277418	     -1.36914802	      1.07764492	      0.92705237	     -0.10582460	     12.30003046	     -5.54074118	    -21.40829110	     37.29386627	     -0.23139991	      0.65090076	     16.14178610	      4.97864998	     -7.50001010	     -2.45018676	     -2.80141923	    -18.47126414	     35.51059564	     -3.80775203	      0.61977681	     18.59909263	     -0.12742830	     -7.50001010	    -17.67311858	      3.96777651	     -5.65768876	     10.58511317	    -12.81681345	      4.55351479	     42.95536695	     90.00000001	      0.00000000	      0.00000000	    -11.34567955	    -11.46798247	      2.04913037	     55.64095553	     90.00000001	      0.00000000	      0.00000000
      8.87000000	      5.22251807	     -0.09313670	     -1.40179687	      1.07979475	      0.92700558	     -0.10460007	     12.35056282	     -5.32868984	    -21.74332095	     37.10865446	     -0.37172591	      0.64766820	     16.40824712	      5.42877998	     -7.50000987	     -1.51831387	     -3.17041118	    -17.99592439	     37.10357584	     -3.74190046	      0.64757956	     17.31197479	     -1.57458750	     -7.50000987	    -17.52361780	      4.19045347	     -5.63743320	     10.61286906	    -12.90438701	      4.85574273	     43.38053600	     90.00000001	      0.00000000	      0.00000000	    -11.42258947	    -11.52252967	      1.95168505	     55.87584760	     90.00000001	      0.00000000	      0.00000000
      8.88000000	      5.17332110	     -0.02025323	     -1.42231309	      1.08208122	      0.92719974	     -0.10355780	     12.15838779	     -5.31537435	    -21.96641443	     36.95600980	     -0.50752169	      0.64500405	     16.61824472	      5.88142870	     -7.50000967	     -0.80520655	     -3.29038846	    -17.27300552	     38.67108401	     -3.59548034	      0.67493774	     16.19986262	     -2.73026144	     -7.50000967	    -17.54144245	      4.20866057	     -5.67137554	     10.70293394	    -13.11019291	      5.11926247	     43.71851695	     90.00000001	      0.00000000	      0.00000000	    -11.50333745	    -11.46363199	      1.89894361	     55.99998553	     90.00000001	      0.00000000	      0.00000000
